<svg xmlns="http://www.w3.org/2000/svg" viewBox="0 0 54.8311 13.1533"><defs><style>.cls-1{fill:#485456;}</style></defs><title>elements</title><g id="レイヤー_1" data-name="レイヤー 1"><path class="cls-1" d="M12.5225,8.3345v.8828H6.71v2.7173c0,1.1768-.6724,1.19-3.2637,1.19a4.4039,4.4039,0,0,0-.4062-.9243c.7143.0278,1.3447.042,1.7929.042.8125,0,.9107,0,.9107-.3081V9.2173H0V8.3345H5.7432V7.1162l.6582.042a11.5435,11.5435,0,0,0,2.0312-1.331H2.3394v-.84H9.4268l.1684-.0561.728.4624a.301.301,0,0,1-.21.126A15.0832,15.0832,0,0,1,6.71,7.8306v.5039ZM1.2466,3.3062V5.5611H.35V2.4517H2.5352A10.1018,10.1018,0,0,0,1.2886.6167L2.0732.2383A9.14,9.14,0,0,1,3.4878,2.2412l-.4062.2105h2.97A10.0967,10.0967,0,0,0,4.9443.3081L5.7568,0a9.0143,9.0143,0,0,1,1.191,2.2412l-.49.2105H8.9087A17.0646,17.0646,0,0,0,10.52.1543,5.5442,5.5442,0,0,1,11.626.6167a.28.28,0,0,1-.294.1118A20.961,20.961,0,0,1,9.9873,2.4517h2.2832V5.5611h-.9243V3.3062Z"/><path class="cls-1" d="M17.2778.4766a.2791.2791,0,0,1-.2944.1118,18.9666,18.9666,0,0,1-2.8013,3.0957,6.1943,6.1943,0,0,0-.5464-.6865A12.4452,12.4452,0,0,0,16.2271.07ZM15.3867,6.8638A15.82,15.82,0,0,1,14.168,8.461a5.1758,5.1758,0,0,0-.5044-.7705A17.3708,17.3708,0,0,0,16.48,3.11l1.05.3921c-.042.0981-.14.14-.3081.126-.28.6167-.6162,1.247-.9668,1.8491l.28.0981c-.0279.084-.0982.1543-.28.1821V13.083h-.8682Zm3.6138-.6724c-.0278.084-.1118.14-.2661.1543a14.9632,14.9632,0,0,1-1.0786,4.9585,4.8408,4.8408,0,0,0-.63-.4062,14.7992,14.7992,0,0,0,.9385-4.9307Zm3.88-2.0591H20.64v8.7266h-.8829V4.1323H17.5576V3.2779h2.1992V.2661l1.149.07c-.0142.0982-.084.168-.2661.1958V3.2779h2.2412ZM21.7461.4483a7.7884,7.7884,0,0,1,1.2607,1.8911l-.6723.3642A9.4518,9.4518,0,0,0,21.1016.7564Zm.4482,9.9316a27.0437,27.0437,0,0,0-.77-4.2446c.5323-.0977.63-.126.7144-.14a26.2451,26.2451,0,0,1,.8125,4.23Zm4.5386-5.561v.8545H25.43v6.2612c0,1.0786-.4341,1.1484-2.5073,1.1484a3.084,3.084,0,0,0-.2945-.9243c.4624.0142.8687.0278,1.1768.0278.6723,0,.7143,0,.7143-.2519V5.6734H22.8106V4.8189ZM26.4946.9107v.8545H23.1328V.9107Z"/><path class="cls-1" d="M38.9116.8267a.2869.2869,0,0,1-.28.084,22.9491,22.9491,0,0,1-2.0034,1.6528,9.9613,9.9613,0,0,0,.98,1.1768A19.1051,19.1051,0,0,0,39.7383,1.835l.8545.63a.3384.3384,0,0,1-.2945.07,24.3285,24.3285,0,0,1-2.143,1.7226,9.2021,9.2021,0,0,0,2.7456,1.709,3.9455,3.9455,0,0,0-.6445.7983,9.713,9.713,0,0,1-2.0591-1.2465v.5322H36.4326V8.2788h3.4458v.8824H36.4326v2.4233c0,.4482.084.5181.5884.5181h1.7368c.4619,0,.5322-.28.5884-1.835a2.7872,2.7872,0,0,0,.8545.3926c-.0982,1.8066-.3506,2.311-1.3731,2.311H36.9087c-1.1484,0-1.4429-.2944-1.4429-1.3867V9.1612H32.7627c-.2241,1.5546-1.0786,2.9975-3.8945,3.9921a2.7562,2.7562,0,0,0-.6021-.7426c2.4795-.84,3.2915-2.0171,3.53-3.25h-3.25V8.2788h3.3477V6.0513H30.3252V5.603A11.56,11.56,0,0,1,28.21,6.8921a3.5271,3.5271,0,0,0-.5884-.7143,9.9228,9.9228,0,0,0,2.9136-1.9473,17.0026,17.0026,0,0,0-1.793-1.5547l.6025-.5044A14.8012,14.8012,0,0,1,31.1235,3.628a9.134,9.134,0,0,0,1.4288-2.1011H28.8545v-.84h4.2163L33.2388.63a4.76,4.76,0,0,0,.6582.3364.24.24,0,0,1-.1538.1538,10.3242,10.3242,0,0,1-2.8858,4.0342H37.749a12.3744,12.3744,0,0,1-3.2915-4.79l.8262-.252a10.7371,10.7371,0,0,0,.9248,1.835A16.0007,16.0007,0,0,0,38.0571.1963ZM35.4658,8.2788V6.0513H32.8325V8.2788Z"/><path class="cls-1" d="M49.0737,6.6538A9.3453,9.3453,0,0,0,50.2783,9.147a22.6327,22.6327,0,0,0,2.8574-2.0029l.8965.6582a.2979.2979,0,0,1-.3081.07,24.4009,24.4009,0,0,1-2.9834,1.8911,7.9,7.9,0,0,0,4.09,2.5352,3.34,3.34,0,0,0-.6167.8261A8.8321,8.8321,0,0,1,48.2192,6.85a13.5128,13.5128,0,0,1-2.4233,1.7232l.2661.042c-.0141.084-.084.1543-.2661.1821v2.8994L49.83,11.08l.042.7983c-2.1992.3926-4.5386.7847-6.0093,1.0088a.258.258,0,0,1-.1821.21l-.4483-1.05c.4624-.0562,1.0225-.14,1.625-.2241V9.0772a19.07,19.07,0,0,1-2.5634,1.05,5.28,5.28,0,0,0-.6163-.77,16.4886,16.4886,0,0,0,5.4629-2.7036H41.874V5.8272h5.855V4.4126H43.4566V3.6143H47.729V2.27H42.6441V1.4429H47.729V.0562L48.9478.14c-.0142.0981-.084.1679-.2662.1962V1.4429h5.253V2.27h-5.253V3.6143h4.4405v.7983h-4.44V5.8272h5.9253v.8266Z"/></g></svg>