<svg xmlns="http://www.w3.org/2000/svg" viewBox="0 0 81.5288 13.083"><defs><style>.cls-1{fill:#485456;}</style></defs><title>elements</title><g id="レイヤー_1" data-name="レイヤー 1"><path class="cls-1" d="M12.9853,7.8443H9.8193a9.826,9.826,0,0,0,3.4878,3.7817,3.5381,3.5381,0,0,0-.644.7285,11.6467,11.6467,0,0,1-3.46-3.978v4.5664H8.3066V8.3487a10.6771,10.6771,0,0,1-3.7681,4.02A3.7472,3.7472,0,0,0,3.88,11.626,9.4463,9.4463,0,0,0,7.6621,7.8443H4.7768V7.1158l-1.751.5322V11.85c0,1.107-.5463,1.1768-2.4233,1.1768a2.9979,2.9979,0,0,0-.2944-.9107c.3086.0142.5883.0142.8408.0142.98,0,.98-.0142.98-.2939V7.9283l-1.5972.476a.27.27,0,0,1-.1958.2242L0,7.5362c.5883-.14,1.331-.3365,2.1294-.5606V3.81H.14V2.9273H2.1294V0L3.3061.07c-.0141.1123-.0845.1679-.28.1962V2.9273H4.7207V3.81H3.0258V6.7373c.56-.1538,1.1348-.3217,1.709-.476l.0977.7285H8.3066V5.3926l1.1626.07c-.0142.0982-.084.168-.2661.1963V6.99h3.7822Zm-.5327-7.06c-.0278.042-.0557.042-.2661.042A37.1725,37.1725,0,0,1,4.9448,2.003a3.11,3.11,0,0,0-.252-.7705A33.4121,33.4121,0,0,0,11.71.0137ZM5.7993,2.5494A9.4325,9.4325,0,0,1,6.8921,5.1685L6.08,5.4068A10.7,10.7,0,0,0,5.0429,2.7452Zm2.7456-.3643a9.0326,9.0326,0,0,1,.7422,2.6616l-.8545.168a9.6816,9.6816,0,0,0-.7-2.6895Zm4.3984.2383a.3128.3128,0,0,1-.2944.126,27.23,27.23,0,0,1-1.835,3.3056s-.6723-.3359-.6865-.3359a22.66,22.66,0,0,0,1.7793-3.544Z"/><path class="cls-1" d="M26.0327,1.0083v10.646c0,1.2886-.6162,1.3028-3.2637,1.2744a3.6148,3.6148,0,0,0-.3364-.91c.5185.0137,1.0224.0278,1.4287.0278,1.1626,0,1.2329,0,1.2329-.3921V8.6148H21.06v4.2583h-.9106V8.6148H16.4653a8.1638,8.1638,0,0,1-1.793,4.4682,3.4283,3.4283,0,0,0-.7143-.63c1.5688-1.7652,1.7231-4.2862,1.7231-6.29V1.0083ZM16.6054,6.1631c0,.49-.0141,1.0088-.0561,1.5552h3.6V5.2666h-3.544Zm3.544-4.2583h-3.544v2.48h3.544Zm4.9448,2.48V1.9048H21.06v2.48ZM21.06,7.7183h4.0342V5.2666H21.06Z"/><path class="cls-1" d="M31.25,1.0367c-.042.1538-.1822.2377-.4624.2241a33.5918,33.5918,0,0,0-.7422,6.3032,15.4226,15.4226,0,0,0,.1821,2.7734c.2661-.6865.8682-2.1572,1.0645-2.6474l.5883.6162c-.5742,1.415-.9946,2.2134-1.1909,2.8437a2.4111,2.4111,0,0,0-.1118.6582,1.4852,1.4852,0,0,0,.07.4346l-.9946.1821a15.38,15.38,0,0,1-.6162-4.8188A40.9667,40.9667,0,0,1,29.7793.7842Zm8.9228,10.2392c-.5044.0283-1.0224.042-1.541.042a19.35,19.35,0,0,1-2.6055-.1538c-1.7226-.2524-2.521-1.2046-2.521-2.3252a4.2787,4.2787,0,0,1,1.3164-2.7036l.9107.3921a3.3125,3.3125,0,0,0-1.1909,2.1992c0,1.625,2.3813,1.625,3.8383,1.625.5884,0,1.2188-.0283,1.8067-.07ZM33.687,2.7173a45.7015,45.7015,0,0,0,6.1074-.5322l.084.9805a53.0575,53.0575,0,0,1-6.1631.5185Z"/><path class="cls-1" d="M42.3364,3.9219c.3223-.07.7842-.1958,1.4424-.4062a23.0051,23.0051,0,0,1,6.2334-1.3448c2.3535,0,4.3564,1.1626,4.3564,4.1045,0,3.4737-3.4316,4.8184-8.1665,5.2949a4.536,4.536,0,0,0-.3638-.9526c4.3282-.4062,7.438-1.583,7.438-4.2866,0-2.1987-1.5132-3.1514-3.3618-3.1514a23.7611,23.7611,0,0,0-6.8779,1.709.38.38,0,0,1-.252.3223Z"/><path class="cls-1" d="M58.3115,1.8911c-.0283.126-.1821.21-.3784.2242a23.0444,23.0444,0,0,0-.2661,3.4878c0,.518.0278,1.0224.0561,1.4707.168,2.3813,1.1343,3.8242,2.2129,3.81.56,0,1.2891-1.4287,1.793-2.9975a4.8921,4.8921,0,0,0,.8125.602c-.6441,1.8911-1.4566,3.4321-2.6192,3.46-1.7793.0283-3.0117-2.1289-3.208-4.8184-.042-.5322-.0556-1.1206-.0556-1.751a33.3987,33.3987,0,0,1,.21-3.768Zm9.2866,6.5132a6.9872,6.9872,0,0,0-3.53-5.2666l.6162-.7563a7.69,7.69,0,0,1,3.95,5.7007Z"/><path class="cls-1" d="M70.0146,1.8911c1.0508-.0424,9.6792-.6586,11.5005-.6723l.0137,1.05c-.1817-.0142-.35-.0142-.5181-.0142a4.0323,4.0323,0,0,0-2.395.7149c-2.1016,1.26-4.1323,3.5156-4.1323,5.3227,0,1.961,1.3725,3.1236,4.8466,3.5718l-.4624.98c-3.978-.5743-5.4628-2.0591-5.4628-4.5523,0-1.9751,1.9467-4.3706,4.51-5.9814-1.4849.0981-5.6728.42-7.48.5883a.4243.4243,0,0,1-.3081.2242Z"/></g></svg>