<svg xmlns="http://www.w3.org/2000/svg" viewBox="0 0 105.3566 12.7891"><defs><style>.cls-1{fill:#485456;}</style></defs><title>elements</title><g id="レイヤー_1" data-name="レイヤー 1"><path class="cls-1" d="M3.2637,3.8384A14.0882,14.0882,0,0,0,4.8183,6.9341a2.6829,2.6829,0,0,0-.35.5322c-.0561.1118-.0839.168-.1259.168-.0284,0-.07-.07-.1265-.1821A18.6378,18.6378,0,0,1,3.1235,4.6089c.0142,4.3423.126,7.8442.126,8.04,0,.0982-.0142.1124-.1118.1124H2.479c-.0982,0-.1118-.0142-.1118-.1124,0-.1958.1118-3.7119.14-7.83a18.1621,18.1621,0,0,1-1.8911,4.65c-.0562.0981-.0982.1543-.14.1543-.0279,0-.07-.0562-.126-.168A2.1135,2.1135,0,0,0,0,8.9512,17.45,17.45,0,0,0,2.2832,3.8384H1.8066C.84,3.8384.56,3.8662.49,3.8662c-.0981,0-.1123-.0136-.1123-.1118V3.208c0-.1123.0142-.1259.1123-.1259.07,0,.35.0278,1.3164.0278h.6026V1.8213A8.2886,8.2886,0,0,0,2.311.1685a7.9882,7.9882,0,0,1,.8823.07c.0982.0142.1543.07.1543.126a.6274.6274,0,0,1-.07.2661,4.2253,4.2253,0,0,0-.07,1.1768V3.11h.084c.9805,0,1.2466-.0278,1.3306-.0278.0981,0,.1123.0136.1123.1259v.5464c0,.0982-.0142.1118-.1123.1118-.084,0-.35-.0278-1.3306-.0278ZM9.1465,6.626a11.2425,11.2425,0,0,0,3.7822,4.09,1.792,1.792,0,0,0-.3921.5606c-.0562.126-.0981.1821-.1543.1821-.042,0-.0981-.042-.1958-.126a11.8811,11.8811,0,0,1-3.376-4.1606c.0142,2.6475.084,5.1973.084,5.4214,0,.0976-.0141.1118-.1118.1118H8.11c-.0981,0-.1123-.0142-.1123-.1118,0-.2241.0562-2.732.084-5.3369a10.8932,10.8932,0,0,1-3.4736,4.1318.4.4,0,0,1-.1963.0981c-.0562,0-.084-.0556-.168-.1679a1.8949,1.8949,0,0,0-.3921-.4624,10.8169,10.8169,0,0,0,3.8658-4.23H6.7656c-1.3867,0-1.8491.0278-1.9194.0278-.0977,0-.1118-.0141-.1118-.1259V5.9673c0-.084.0141-.0976.1118-.0976.07,0,.5327.0278,1.9194.0278H8.04V3.67H6.2051A10.81,10.81,0,0,1,5.5327,5.001c-.07.126-.1118.1963-.168.1963s-.1123-.042-.21-.1123a1.3315,1.3315,0,0,0-.49-.2383A8.9356,8.9356,0,0,0,6.0371,1.751a3.3116,3.3116,0,0,0,.084-.7842,5.0951,5.0951,0,0,1,.7983.1963c.084.0278.1543.084.1543.1538s-.0283.1123-.0981.1963a1.13,1.13,0,0,0-.168.42c-.084.3081-.1821.6446-.3086.9947H8.04V2.0034A8.8636,8.8636,0,0,0,7.9419.2105a7.5626,7.5626,0,0,1,.8965.084c.1123.0141.1821.0561.1821.1118a.92.92,0,0,1-.084.28,4.6744,4.6744,0,0,0-.084,1.3028v.9385h1.3028c1.2324,0,1.625-.0279,1.7089-.0279.0982,0,.1119.0142.1119.1118V3.586c0,.0981-.0137.1123-.1119.1123-.0839,0-.4765-.0279-1.7089-.0279H8.8525V5.8975h1.7652c1.3867,0,1.8486-.0278,1.9189-.0278.0981,0,.1118.0136.1118.0976v.5606c0,.1118-.0137.1259-.1118.1259-.07,0-.5322-.0278-1.9189-.0278Z"/><path class="cls-1" d="M22.5864,3.8526a20.6851,20.6851,0,0,0,.9385,5.4067c.4482,1.3169,1.0366,2.3394,1.6528,2.3394.5044,0,.7144-.9527.8125-2.2974a2.9131,2.9131,0,0,0,.5322.3921c.2662.1543.2945.1679.2662.4346-.2242,1.6665-.7144,2.4653-1.4986,2.4653-.9668,0-1.8071-.8408-2.5215-2.83a22.327,22.327,0,0,1-1.0507-5.9111H16.6753c-1.3589,0-1.8072.0278-1.877.0278-.0981,0-.1123-.0142-.1123-.1123V3.11c0-.0982.0142-.1118.1123-.1118.07,0,.5181.0278,1.877.0278h5c-.0279-.35-.0279-.6865-.042-1.0366a11.0444,11.0444,0,0,0-.14-1.7227,7.95,7.95,0,0,1,.98.084c.0981.0137.1821.084.1821.1538a.9377.9377,0,0,1-.07.2661,3.2893,3.2893,0,0,0-.07,1.1768c0,.3642.0278.7285.042,1.0786h1.8208c1.3447,0,1.8071-.0278,1.8769-.0278.0982,0,.1123.0136.1123.1118v.6582c0,.0981-.0141.1123-.1123.1123-.07,0-.5322-.0278-1.8769-.0278Zm-4.0483,6.4013a25.85,25.85,0,0,0,2.8857-.9248,3.3782,3.3782,0,0,0-.042.5322c0,.28-.0141.2945-.28.3926a53.1469,53.1469,0,0,1-5.1547,1.4986,1.4533,1.4533,0,0,0-.5464.21.4757.4757,0,0,1-.21.0977c-.0561,0-.1123-.0557-.1543-.1538-.084-.21-.1821-.5464-.2661-.84a9.3676,9.3676,0,0,0,1.2891-.21l1.6108-.3643V6.9341h-.7427c-1.2324,0-1.625.0278-1.6948.0278-.0981,0-.1123-.0136-.1123-.1118V6.2617c0-.1123.0142-.1259.1123-.1259.07,0,.4624.0278,1.6948.0278h2.4375c1.2188,0,1.6109-.0278,1.6807-.0278.0981,0,.1123.0136.1123.1259V6.85c0,.0982-.0142.1118-.1123.1118-.07,0-.4619-.0278-1.6807-.0278h-.8266ZM23.8471.6865c.126-.1118.168-.1118.2662-.0419a8.1591,8.1591,0,0,1,1.4145,1.2187c.0562.07.07.1118-.084.2383l-.2939.2241c-.1685.126-.1963.126-.28.0278A5.9919,5.9919,0,0,0,23.539,1.0928c-.0839-.0562-.0839-.0981.0557-.21Z"/><path class="cls-1" d="M40.69,5.7573c-.084.1543-.1118.2242-.1821.2242a.4857.4857,0,0,1-.1958-.084,13.6591,13.6591,0,0,1-5.8833-4.65,14.0778,14.0778,0,0,1-5.6309,4.6782.52.52,0,0,1-.21.084c-.07,0-.0977-.0557-.1822-.21a1.5412,1.5412,0,0,0-.434-.476A12.386,12.386,0,0,0,33.6728.7847,3.1807,3.1807,0,0,0,34.0371,0a5.204,5.204,0,0,1,.8823.1822c.14.0424.1963.0844.1963.1684a.1545.1545,0,0,1-.0981.1538.7433.7433,0,0,0-.1543.0982,13.0594,13.0594,0,0,0,6.2334,4.5947A1.9721,1.9721,0,0,0,40.69,5.7573Zm-.6582,2.2413c0,.0981-.0142.1123-.1118.1123-.0845,0-.5327-.0284-1.9331-.0284H33.7007c-.42,1.0508-.8965,2.1431-1.4566,3.2359,1.6807-.1123,3.5718-.294,5.1826-.4761-.4062-.5185-.84-1.0229-1.3164-1.541-.0844-.084-.0561-.126.084-.1963l.4063-.2241c.1118-.0557.1538-.0557.21,0a25.1379,25.1379,0,0,1,2.69,3.32c.0561.07.0561.1265-.07.21l-.4341.2939a.436.436,0,0,1-.1538.07c-.042,0-.07-.0283-.1123-.0845-.2661-.4062-.5181-.7983-.7984-1.1762-2.4653.3217-5.2671.5879-7.7182.77a1.0534,1.0534,0,0,0-.5323.1265.2485.2485,0,0,1-.1821.0839c-.084,0-.126-.07-.1538-.1543a8.3553,8.3553,0,0,1-.21-.9384,13.6294,13.6294,0,0,0,1.5268,0c.1963,0,.3921-.0142.6026-.0279a25.5156,25.5156,0,0,0,1.4707-3.292H31.0532c-1.3867,0-1.8486.0284-1.9189.0284-.1119,0-.126-.0142-.126-.1123V7.3823c0-.0981.0141-.1123.126-.1123.07,0,.5322.0284,1.9189.0284h6.9341c1.4,0,1.8486-.0284,1.9331-.0284.0976,0,.1118.0142.1118.1123ZM37.3847,5.4351c0,.0981-.0141.1123-.1118.1123-.07,0-.4624-.0283-1.6391-.0283H33.3647c-1.1767,0-1.5688.0283-1.6391.0283-.0977,0-.1119-.0142-.1119-.1123V4.833c0-.0981.0142-.1123.1119-.1123.07,0,.4624.0283,1.6391.0283h2.2691c1.1767,0,1.5688-.0283,1.6391-.0283.0977,0,.1118.0142.1118.1123Z"/><path class="cls-1" d="M46.2441,2.55a.37.37,0,0,0,.252-.0561.4029.4029,0,0,1,.126-.0279c.07,0,.1684.0557.35.2378.168.1822.2378.28.2378.3365,0,.07-.0278.1118-.1118.1821a.7927.7927,0,0,0-.28.3359,14.3042,14.3042,0,0,1-1.3447,2.2554,8.8682,8.8682,0,0,0,2.1289,1.7227,2.1259,2.1259,0,0,0-.3921.5185c-.0561.1118-.0981.1538-.1538.1538a.3282.3282,0,0,1-.1821-.0976,9.8,9.8,0,0,1-1.583-1.5552v4.3706c0,1.1206.0278,1.6807.0278,1.751,0,.0981-.0137.1118-.1118.1118h-.6582c-.0981,0-.1123-.0137-.1123-.1118,0-.07.0278-.63.0278-1.751V7.0181A14.6618,14.6618,0,0,1,42.63,8.6568c-.0977.07-.1538.1123-.21.1123s-.084-.0562-.14-.1822a1.5148,1.5148,0,0,0-.336-.5185,11.1211,11.1211,0,0,0,4.09-4.7764H44.0029c-1.0366,0-1.3589.0278-1.4287.0278-.0981,0-.1123-.0136-.1123-.1118V2.6338c0-.0981.0142-.1123.1123-.1123.07,0,.3921.0283,1.4287.0283h.4619V1.7373a7.6858,7.6858,0,0,0-.0976-1.583,8.4668,8.4668,0,0,1,.91.084c.1123.0142.1822.07.1822.1123a.5958.5958,0,0,1-.084.2661,3.1236,3.1236,0,0,0-.084,1.0923V2.55Zm8.4883,9.5528c0,.0981-.0137.1123-.1118.1123-.07,0-.5322-.0279-1.919-.0279H48.7373c-1.3726,0-1.8491.0279-1.919.0279-.1123,0-.1259-.0142-.1259-.1123v-.6163c0-.0981.0136-.1118.1259-.1118.07,0,.5464.0279,1.919.0279h1.415V5.6172H49.27c-1.2886,0-1.7226.0283-1.793.0283-.0976,0-.1118-.0141-.1118-.1123V4.917c0-.0981.0142-.1123.1118-.1123.07,0,.5044.0283,1.793.0283h.8828V2.1016A9.9077,9.9077,0,0,0,50.0542.1822a8.0547,8.0547,0,0,1,.9385.0844c.0981.0137.1679.0557.1679.1118a.9413.9413,0,0,1-.0561.2383,5.1992,5.1992,0,0,0-.0977,1.4566v2.76h1.19c1.2886,0,1.7232-.0283,1.793-.0283.0982,0,.1123.0142.1123.1123v.6162c0,.0982-.0141.1123-.1123.1123-.07,0-.5044-.0283-1.793-.0283h-1.19v5.7852h1.6948c1.3868,0,1.8492-.0279,1.919-.0279.0981,0,.1118.0137.1118.1118Z"/><path class="cls-1" d="M62.5976,9.1612h2.4375c.8965,0,1.6665-.0279,2.5772-.0562.14-.0137.1963.0283.1963.1685v.644c0,.14-.042.1821-.1963.1821-.7842-.0136-1.6948-.042-2.5635-.042H59.124c-.6865,0-1.6533.042-2.27.07-.1538,0-.1963-.0284-.2241-.21a6.5407,6.5407,0,0,1-.07-.8262c.91.07,1.6949.07,2.5635.07h2.4512V3.8946H60.2021c-.84,0-1.4707.0278-2.1289.07-.126.0141-.14-.042-.1679-.21a6.6927,6.6927,0,0,1-.0562-.8266c.7563.0561,1.3726.07,2.311.07h3.628c.8686,0,1.583-.0142,2.4516-.042.126-.0142.14.0278.14.14v.6724c0,.14-.0142.1821-.1543.1821-.8965-.042-1.5967-.0556-2.4234-.0556H62.5976Z"/><path class="cls-1" d="M73.9507,3.0117c.1543.0562.1684.1822.0981.3506a3.3181,3.3181,0,0,0-.14,1.0923,9.0352,9.0352,0,0,1-.8682,3.8384,7.3343,7.3343,0,0,1-2.0034,2.4932c-.1538.14-.28.1538-.3921.0561a2.0267,2.0267,0,0,0-.7422-.3506,6.6591,6.6591,0,0,0,2.2549-2.605,8.2034,8.2034,0,0,0,.7563-3.6279,5.7475,5.7475,0,0,0-.1259-1.457A5.2953,5.2953,0,0,1,73.9507,3.0117Zm2.9135,6.3594a18.2522,18.2522,0,0,0,2.3814-1.4844,13.1,13.1,0,0,0,2.48-2.3393,2.3616,2.3616,0,0,0,.2378.8823c.0561.126.07.21-.084.3643A19.1181,19.1181,0,0,1,79.666,8.7549a26.8009,26.8009,0,0,1-2.4233,1.5689,1.9771,1.9771,0,0,0-.4624.3081.2663.2663,0,0,1-.378.0141,2.882,2.882,0,0,1-.5464-.5464.39.39,0,0,1-.0283-.35,7.1692,7.1692,0,0,0,.0562-1.3867V4.3848a12.51,12.51,0,0,0-.14-2.4517,9.7382,9.7382,0,0,1,1.1626.1822c.21.07.1685.21.084.4062a6.6943,6.6943,0,0,0-.126,1.8491Z"/><path class="cls-1" d="M93.2031,3.2359a2.5035,2.5035,0,0,0,1.023-.1119.275.275,0,0,1,.35.042,3.7556,3.7556,0,0,1,.602.6582.27.27,0,0,1-.07.4205,2.7642,2.7642,0,0,0-.6582.5883A31.2038,31.2038,0,0,1,90.458,8.7412,18.2127,18.2127,0,0,1,91.9,10.38a.1835.1835,0,0,1,0,.2939,3.0981,3.0981,0,0,1-.5181.4483c-.1118.07-.1538.084-.2383-.042A20.823,20.823,0,0,0,86.8159,6.878c.168-.168.4062-.4063.56-.5464.0981-.084.14-.07.2666,0,.812.6167,1.5127,1.1767,2.1567,1.7651a26.3736,26.3736,0,0,0,3.88-3.978l-6.1636.0278c-1.1343,0-2.0029.0562-2.7734.1123-.1539.0137-.1958-.0283-.2242-.1543a8.9951,8.9951,0,0,1-.1118-.98,29.5594,29.5594,0,0,0,3.1094.1119Z"/><path class="cls-1" d="M105.2431,2.1016a.23.23,0,0,1,.0562.35,3.6439,3.6439,0,0,0-.63,1.0366,22.7713,22.7713,0,0,1-2.4375,4.146,17.2111,17.2111,0,0,1-4.2163,3.95.2589.2589,0,0,1-.35-.0142,2.84,2.84,0,0,0-.8262-.3921,16.5919,16.5919,0,0,0,4.5245-4.09,18.4007,18.4007,0,0,0,2.2412-3.894,6.0844,6.0844,0,0,0,.4482-1.6807A6.24,6.24,0,0,1,105.2431,2.1016Z"/></g></svg>