<svg xmlns="http://www.w3.org/2000/svg" viewBox="0 0 107.9331 13.041"><defs><style>.cls-1{fill:#485456;}</style></defs><title>elements</title><g id="レイヤー_1" data-name="レイヤー 1"><path class="cls-1" d="M6.2617.3364C6.22.4341,6.1074.49,5.94.49c-.1822.5742-.3785,1.1768-.6162,1.7651h7.41v.91H4.917A16.6642,16.6642,0,0,1,3.2359,6.0512l.1542.042c-.0283.0982-.1123.168-.28.1822V13.041H2.1714V7.354A11.9257,11.9257,0,0,1,.5186,8.8388,5.7618,5.7618,0,0,0,0,7.9843a11.0161,11.0161,0,0,0,2.1714-2.101V5.7851l.0562.0142A14.9657,14.9657,0,0,0,3.8521,3.1655H.3364v-.91H4.2725A20.2247,20.2247,0,0,0,5.043.0141ZM8.8672,7.62v4.1885h3.8657v.8823H4.1323v-.8823H7.9146V7.62H4.6929V6.7378H7.9146V3.9223l1.2187.084c-.0141.0977-.084.1538-.2661.1822V6.7378h3.3057V7.62Z"/><path class="cls-1" d="M20.3735,11.01c0,.5884.168.7144,1.0787.7144h3.1655c.8125,0,.9526-.3638,1.0508-2.1987a2.837,2.837,0,0,0,.9384.42c-.1538,2.1152-.476,2.7036-1.9609,2.7036H21.41c-1.583,0-2.045-.3364-2.045-1.6392V8.4887l-5.0146.6441-.14-.8965,5.1547-.644V5.2529c-1.2465.3081-2.5634.5884-3.81.8125a4.7136,4.7136,0,0,0-.3081-.7983,35.5493,35.5493,0,0,0,7.5918-2.1294l.8686.7983a.2233.2233,0,0,1-.1679.0562.3854.3854,0,0,1-.1265-.0142,25.1009,25.1009,0,0,1-3.0674,1.0225l.3081.0141c-.0141.0982-.084.168-.28.1963V7.4663l6.4014-.8125.14.8681-6.5416.8409ZM15.5972,2.6474V4.6787h-.9527V1.7368h5.3648V0L21.27.084c-.0136.0981-.084.1679-.28.1962V1.7368h5.4209V4.6787h-.98V2.6474Z"/><path class="cls-1" d="M28.0283,6.6958c.5884-.5606,2.0308-2.0874,2.7735-2.8858,1.0786-1.19,1.6108-1.4565,2.311-1.4565.8408,0,1.4429.5322,2.69,2.0171a65.0816,65.0816,0,0,0,5.2812,5.5888l-.7427.8682a55.94,55.94,0,0,1-5.0424-5.4067c-1.191-1.4566-1.625-2.0171-2.1993-2.0171-.56,0-.9946.4624-1.8491,1.4287-.4761.5464-1.6108,1.793-2.2134,2.4653a.4.4,0,0,1-.1538.3921Z"/><path class="cls-1" d="M49.34,2.5635a.363.363,0,0,1-.35.2241c-.5039,4.3564-1.961,8.1523-4.2862,8.1523-1.1767,0-2.2412-1.1767-2.2412-3.39a6.1462,6.1462,0,0,1,6.3032-6.1778c4.0484,0,5.7994,2.5635,5.7994,5.295,0,3.3339-1.9332,4.9448-5.3228,5.7294a5.4876,5.4876,0,0,0-.5884-.8544c3.2217-.6167,4.8745-2.1856,4.8745-4.8331,0-2.311-1.4848-4.4121-4.7627-4.4121a3.9179,3.9179,0,0,0-.42.0279Zm-1.3447-.1822a5.1559,5.1559,0,0,0-4.5805,5.1406c0,1.4991.644,2.4375,1.3164,2.4375C46.4268,9.9594,47.645,6.2192,47.9956,2.3813Z"/><path class="cls-1" d="M63.228,1.5967H61.9253v11.43h-.91V10.1416c-1.6811.2939-3.3481.5884-4.44.7563a.2538.2538,0,0,1-.21.1963L56,10.0156c.3643-.042.7847-.0981,1.2471-.1685v-8.25H56.0283V.7143h7.2ZM61.0151,3.6279V1.5967H58.1436V3.6279Zm0,2.9277V4.4966H58.1436v2.059Zm-2.8715.8682V9.7353c.8965-.126,1.8906-.28,2.8715-.42V7.4238Zm9.8471-5.3789.5884.1963a.4048.4048,0,0,1-.1123.1821,17.955,17.955,0,0,1-2.2549,6.9478,8.0561,8.0561,0,0,0,2.9273,2.8994,3.2113,3.2113,0,0,0-.6724.7705A8.6792,8.6792,0,0,1,65.6514,10.24a10.3389,10.3389,0,0,1-2.9136,2.7871,4.0246,4.0246,0,0,0-.63-.7563A9.0585,9.0585,0,0,0,65.105,9.3291a21.3032,21.3032,0,0,1-1.919-6.0235l.8687-.1679a19.5786,19.5786,0,0,0,1.6245,5.2529,17.5418,17.5418,0,0,0,1.7651-5.3931H62.752V2.0732h5.0708Z"/><path class="cls-1" d="M71.43,8.2783a9.3873,9.3873,0,0,1-.4062-2.6333A24.9623,24.9623,0,0,1,71.5,1.0224l1.4.2383c-.0557.1821-.2241.2241-.4062.2383a20.4871,20.4871,0,0,0-.4761,4.0762,5.5556,5.5556,0,0,0,.042.7563A23.9962,23.9962,0,0,1,73.1528,4.16a5.9411,5.9411,0,0,0,.5459.6167C72.6626,6.64,72.354,7.1718,72.354,7.76a1.5742,1.5742,0,0,0,.0425.35ZM78.938.6582c-.0142.1684-.1265.2383-.3643.3081.0982,1.2187.2378,3.25.2378,4.8608-.0136,2.7036-.9941,5.1406-5.21,6.8916a7.4663,7.4663,0,0,0-.7007-.8125c3.8242-1.4565,4.8467-3.768,4.8467-6.0649,0-1.7232-.168-3.7539-.3223-5.2529Z"/><path class="cls-1" d="M86.0747,7.7041c-.084-.2241-.1958-.4761-.3218-.7564l-1.5688.084v5.9951H83.33V7.0737c-.7988.0283-1.5269.07-2.1016.084-.0136.1123-.0976.1543-.1958.1821L80.78,6.29h1.0649c.3081-.3642.63-.7846.9385-1.2187A11.8917,11.8917,0,0,0,80.92,3.0259l.4766-.6167a5.1393,5.1393,0,0,1,.42.3784A22.205,22.205,0,0,0,83.2031.0141l1.023.4341c-.0562.084-.14.1123-.2944.1123a20.8465,20.8465,0,0,1-1.5689,2.7451,11.3272,11.3272,0,0,1,.9248,1.0508c.63-.9385,1.2324-1.9331,1.6665-2.7456l.9946.4766a.3532.3532,0,0,1-.3081.1118,37.71,37.71,0,0,1-2.8857,4.0762l2.62-.042c-.28-.4761-.5884-.9663-.8965-1.3867l.7-.3365a12.21,12.21,0,0,1,1.6392,2.8159Zm-3.3476.6445c-.0279.084-.1119.14-.2661.14a12.4068,12.4068,0,0,1-.9527,3.3619,5.4611,5.4611,0,0,0-.7-.3643,12.062,12.062,0,0,0,.8965-3.4038Zm2.83-.3081a13.0679,13.0679,0,0,1,.9663,2.69c-.168.07-.336.1259-.7842.28a12.0081,12.0081,0,0,0-.9107-2.7314Zm7.354,3.6978h1.0644v.8686H85.7529v-.8686H87.21V.6865h5.7012ZM91.958,1.5547H88.12V4.3423H91.958Zm0,6.4438V5.2109H88.12V7.9985ZM88.12,8.8667v2.8716H91.958V8.8667Z"/><path class="cls-1" d="M106.6026,4.062a.3858.3858,0,0,1-.4063.2524,27.8712,27.8712,0,0,1-.6162,2.8574c.7563.3223,1.5547.6866,2.353,1.0928l-.4482.9385c-.7564-.3784-1.4849-.7427-2.1992-1.0508a8.08,8.08,0,0,1-3.1236,4.4683,4.917,4.917,0,0,0-.7983-.5879,7.43,7.43,0,0,0,3.0254-4.2866,13.9758,13.9758,0,0,0-3.74-1.0367c-.9668,3.53-1.8354,4.4546-3.5161,4.4546A1.9465,1.9465,0,0,1,95.13,8.9648c0-2.1714,2.2549-3.18,4.7622-3.1938a33.6924,33.6924,0,0,0,.7568-3.95c-.6587.0561-2.9.21-3.9643.28a.4474.4474,0,0,1-.294.1963l-.1264-1.1347c1.2046-.042,3.81-.21,4.6508-.294a.539.539,0,0,0,.3081-.1543l.8682.5186a.5907.5907,0,0,1-.35.2241,43.8026,43.8026,0,0,1-.8682,4.37,14.3816,14.3816,0,0,1,3.7676.9947,23.0935,23.0935,0,0,0,.6026-3.0538ZM99.6685,6.6538c-2.0171.0278-3.628.8262-3.628,2.311,0,.7847.3785,1.3169,1.0367,1.3169C98.1,10.2817,98.772,9.9311,99.6685,6.6538Z"/></g></svg>