<svg xmlns="http://www.w3.org/2000/svg" viewBox="0 0 66.8438 13.4893"><defs><style>.cls-1{fill:#485456;}</style></defs><title>elements</title><g id="レイヤー_1" data-name="レイヤー 1"><path class="cls-1" d="M5.9531,3.4458c-.0136.0561-.0976.1118-.1679.14A14.4277,14.4277,0,0,1,3.7681,6.8916C4.44,7.34,5.813,8.3486,6.1773,8.6284l-.56.7847c-.3921-.3926-1.2886-1.1348-1.9751-1.6812v5.7432H2.7036V8.082A14.3829,14.3829,0,0,1,.5044,9.917,3.7172,3.7172,0,0,0,0,9.0908,13.3081,13.3081,0,0,0,4.6367,3.9922H.3643V3.1235H2.7036V.4482l1.2188.07c-.0142.0981-.0982.1679-.28.1962V3.1235H5.1548l.168-.0561Zm4.0064,8.67h3.39v.9248H5.3369v-.9248h3.67V6.0513H5.8975V5.1406H9.0068V.5464L10.2534.63C10.24.7285,10.1558.7983,9.96.8262V5.1406h3.0957v.9107H9.96Z"/><path class="cls-1" d="M19.0991,11.71a.4686.4686,0,0,1-.28.0981,17.0083,17.0083,0,0,1-4.1319,1.6528,5.4057,5.4057,0,0,0-.6865-.7,14.6,14.6,0,0,0,4.1323-1.625ZM15.457,5.0288H25.4727v6.0791H15.457Zm.7989-4.02H24.66V4.16H16.2559Zm.14,4.7349V6.8218h8.11V5.7432Zm0,1.7646V8.6006h8.11V7.5078Zm0,1.7793v1.1064h8.11V9.2871Zm.7988-7.4941V3.3618H23.68V1.793ZM26.145,13.4893a35.3586,35.3586,0,0,0-4.4824-1.6949l.8267-.6167a45.7252,45.7252,0,0,1,4.4541,1.625Z"/><path class="cls-1" d="M37.6943,2.5073a12.8159,12.8159,0,0,0-1.3588-1.4848l.49-.3921a10.8292,10.8292,0,0,1,1.793,2.0171l-.2662.1958.1124.0561a.3636.3636,0,0,1-.1963.1543c-1.0787,5.2808-3.81,8.4326-8.3907,10.0435a6.2449,6.2449,0,0,0-.6445-.8125A11,11,0,0,0,37.05,3.5439H28.127V2.5913h9.2871l.1821-.126Zm2.1573-.084A9.6254,9.6254,0,0,0,38.1426.4062L38.6607,0a10.1419,10.1419,0,0,1,1.7509,2.0171Z"/><path class="cls-1" d="M52.0029,2.7593v9.2451H50.9941v-.8823H43.2759v.91h-.98V2.7593Zm-1.0088,7.4243V3.6977H43.2759v6.4859Z"/><path class="cls-1" d="M64.7144,3.6279a.7552.7552,0,0,1-.21.21c-1.4849,4.6367-3.7822,7.438-7.5781,9.3711a3.3184,3.3184,0,0,0-.7144-.7705,12.9755,12.9755,0,0,0,7.0459-8.25H58.313a13.9944,13.9944,0,0,1-3.0957,3.4179,4.5263,4.5263,0,0,0-.7842-.63A13.9508,13.9508,0,0,0,58.8735.84l1.3164.3643c-.0419.14-.21.1958-.392.1821-.28.63-.6026,1.3027-.9244,1.8628h4.8746l.1679-.084ZM62.9775.4062a10.5283,10.5283,0,0,1,1.835,1.9888l-.5181.4483A10.0658,10.0658,0,0,0,62.4873.8545ZM65.0088,0a10.1184,10.1184,0,0,1,1.835,1.9888l-.5186.4345A9.9091,9.9091,0,0,0,64.5186.4482Z"/></g></svg>