<svg xmlns="http://www.w3.org/2000/svg" viewBox="0 0 55.0132 13.0967"><defs><style>.cls-1{fill:#485456;}</style></defs><title>elements</title><g id="レイヤー_1" data-name="レイヤー 1"><path class="cls-1" d="M7.3819.084a.3692.3692,0,0,1-.294.21,16.0364,16.0364,0,0,0,6.1075,4.7344,4.0127,4.0127,0,0,0-.6026.8408A17.5655,17.5655,0,0,1,6.5.9664,16.6656,16.6656,0,0,1,.5464,5.9248,4.2861,4.2861,0,0,0,0,5.1685,15.0608,15.0608,0,0,0,5.9952,0ZM.7286,8.0821V7.1856H12.481v.8965H5.7432l.168.0561c-.042.0982-.1538.14-.336.1543A35.6848,35.6848,0,0,1,3.9219,11.542c1.8633-.042,4.0342-.1118,6.1636-.1821A22.5421,22.5421,0,0,0,8.0264,9.2588l.7983-.4341a19.2487,19.2487,0,0,1,3.39,3.74l-.8408.5322a10.0137,10.0137,0,0,0-.6861-.98c-3.4038.1821-7.018.3364-9.2592.4062a.238.238,0,0,1-.2242.1963l-.35-1.1206c.5884,0,1.2744-.0142,2.045-.042A30.4506,30.4506,0,0,0,4.5664,8.0821Zm2.395-3.6138H9.9175v.8823H3.1236Z"/><path class="cls-1" d="M19.813,3.04c-.0136.0561-.0981.1118-.1679.14A14.4277,14.4277,0,0,1,17.628,6.4854c.6723.4482,2.0449,1.457,2.4092,1.7368l-.56.7847c-.3921-.3926-1.2886-1.1348-1.9751-1.6812v5.7432h-.9385V7.6758a14.3829,14.3829,0,0,1-2.1992,1.835,3.7172,3.7172,0,0,0-.5044-.8262A13.3081,13.3081,0,0,0,18.4966,3.586H14.2242V2.7173h2.3393V.042l1.2188.07c-.0142.0981-.0982.1679-.28.1962V2.7173h1.5127l.168-.0561Zm4.0064,8.67h3.39v.9248H19.1968V11.71h3.67V5.6451H19.7574V4.7344h3.1093V.14l1.2466.084C24.1.3223,24.0157.3921,23.8194.42V4.7344h3.0957v.9107H23.8194Z"/><path class="cls-1" d="M30.7735,5.1265c.3364.5322,1.2329,2.0874,1.4429,2.48l-.5044.7c-.168-.4482-.5884-1.3447-.9385-2.0449v6.7656h-.84V6.3033A16.8011,16.8011,0,0,1,28.4063,10.31a4.688,4.688,0,0,0-.4624-.7705A17.7678,17.7678,0,0,0,29.8492,4.02H28.21V3.1514h1.7231V.0279l1.1065.07c-.0142.0981-.084.1685-.2661.1963V3.1514H32.104V4.02H30.7735ZM34.99,7.69a15.21,15.21,0,0,1,1.5547,2.8857l-.7281.378c-.07-.1958-.1684-.4341-.28-.6861-1.2329.4761-2.4654.9385-3.2779,1.2466a.2707.2707,0,0,1-.1543.2241l-.434-.98.9248-.28V.5884h3.3193V6.6255H33.4209v3.5718c.5743-.1821,1.1768-.3921,1.793-.602-.28-.5464-.6025-1.1206-.9106-1.5972Zm.1123-6.29H33.4209v1.793h1.6812ZM33.4209,5.7989h1.6812V3.9781H33.4209ZM39.2481,11.64c0,.5322.07.5884.3364.5884h.42c.3223,0,.4483-.14.49-.4624.0283-.2378.0283-.7422.042-1.4146a2.19,2.19,0,0,0,.6723.35c-.042,1.6948-.084,2.2412-1.1484,2.2412h-.6445c-1.0083,0-1.0083-.5884-1.0083-1.4145V9.5533a8.6791,8.6791,0,0,1-3.4039,3.5014,4.6506,4.6506,0,0,0-.5463-.644,8.5335,8.5335,0,0,0,4.1743-5.729H36.2925V5.8692h.7705V1.4h-.6445V.5884h4.5386V1.4h-.77a32.8,32.8,0,0,1-.5323,4.4688h1.4429v.8125h-1.625c-.084.35-.168.686-.28,1.0083l.3365.0278c-.0142.0845-.0982.1543-.28.1821Zm-1.4146-5.771h.98A32.3088,32.3088,0,0,0,39.3321,1.4H37.8335Z"/><path class="cls-1" d="M55.0132,8.6568H52.1553a5.9127,5.9127,0,0,1-1.8769,2.311,38.5941,38.5941,0,0,1,4.3,1.3169l-.5743.7842a38.029,38.029,0,0,0-4.72-1.4985,17.7348,17.7348,0,0,1-6.6118,1.4707A2.7,2.7,0,0,0,42.294,12.2a19.6445,19.6445,0,0,0,5.6313-.9521c-.9106-.2105-1.8349-.4063-2.7876-.5884l-.3222.42-.8824-.3222c.4483-.5743,1.0083-1.3169,1.5547-2.1011h-3.39V7.8443h3.95c.3359-.49.6582-.98.9385-1.4151h-3.67V2.8013h3.1514V1.5269H42.21V.6724H54.9151v.8545H50.5728V2.8013h3.2495V6.4292H47.5332l.6724.1822c-.0425.0981-.14.14-.3364.1259-.2241.3365-.4624.7144-.7285,1.107h7.8725ZM44.2134,3.6V5.6309h2.2549V3.6Zm2.3672,5.0571c-.3081.4482-.63.8965-.9385,1.3164,1.1763.21,2.3531.4482,3.4737.7143a5.1859,5.1859,0,0,0,1.9751-2.0307Zm.7842-7.13V2.8013h2.2974V1.5269Zm0,4.104h2.2974V3.6H47.3648ZM52.8838,3.6h-2.311V5.6309h2.311Z"/></g></svg>